<svg width="1" height="1" viewBox="0 0 200 50" fill="none" xmlns="http://www.w3.org/2000/svg">
<path d="M0 24.5C0 10.969 10.969 0 24.5 0C38.031 0 49 10.969 49 24.5C49 38.031 38.031 49 24.5 49C10.969 49 0 38.031 0 24.5Z" fill="#FCD581"/>
<path d="M6.08253 33.0652C5.586 33.0652 5.33773 32.5556 5.33773 31.5364C5.33773 31.0399 5.55987 30.2559 6.00413 29.1844C6.4484 28.0868 7.0364 26.8193 7.76813 25.382C8.526 23.9185 9.37533 22.4028 10.3161 20.8348C11.2569 19.2407 12.2239 17.6857 13.2169 16.17C14.21 14.6543 15.1639 13.2823 16.0785 12.054C16.9932 10.7996 17.8164 9.80653 18.5481 9.0748C19.2799 8.34307 19.8417 7.9772 20.2337 7.9772C20.4167 7.9772 20.6649 8.06867 20.9785 8.2516C21.2921 8.43453 21.5796 8.6436 21.8409 8.8788C22.1023 9.114 22.2329 9.32307 22.2329 9.506C22.2329 9.9764 22.1676 10.486 22.0369 11.0348C21.9324 11.5575 21.8409 12.054 21.7625 12.5244C21.7103 12.7857 21.6057 13.3737 21.4489 14.2884C21.2921 15.1769 21.1353 16.2092 20.9785 17.3852C20.8479 18.5351 20.7825 19.6327 20.7825 20.678C20.7825 21.6711 20.8871 22.5204 21.0961 23.226C21.3052 23.9316 21.6841 24.2844 22.2329 24.2844C22.9385 24.2844 23.8009 23.9577 24.8201 23.3044C25.8393 22.6511 26.9239 21.8148 28.0737 20.7956C29.2497 19.7503 30.4127 18.6527 31.5625 17.5028C32.7385 16.3268 33.81 15.2292 34.7769 14.21C35.77 13.1647 36.5932 12.3153 37.2465 11.662C37.926 11.0087 38.3311 10.682 38.4617 10.682C38.5401 10.682 38.5793 10.7343 38.5793 10.8388C38.5793 11.0479 38.4879 11.3092 38.3049 11.6228C37.9913 12.2239 37.4948 12.9817 36.8153 13.8964C36.162 14.7849 35.3911 15.7519 34.5025 16.7972C33.614 17.8425 32.6601 18.8748 31.6409 19.894C30.6479 20.9132 29.6417 21.8409 28.6225 22.6772C27.6033 23.5135 26.6233 24.1929 25.6825 24.7156C24.7417 25.2121 23.8924 25.4604 23.1345 25.4604C21.9324 25.4604 21.0177 25.1337 20.3905 24.4804C19.7633 23.8009 19.3321 22.9385 19.0969 21.8932C18.8617 20.8217 18.7441 19.7111 18.7441 18.5612C18.7441 17.2284 18.8095 16.0785 18.9401 15.1116C19.0708 14.1185 19.2276 12.9948 19.4105 11.7404C18.2345 12.9687 16.9671 14.4191 15.6081 16.0916C14.2753 17.738 12.9817 19.502 11.7273 21.3836C10.4991 23.2652 9.4276 25.1599 8.51293 27.0676C7.59827 28.9492 6.98413 30.7393 6.67053 32.438C6.6444 32.5948 6.59213 32.7385 6.51373 32.8692C6.43533 32.9999 6.2916 33.0652 6.08253 33.0652ZM33.9929 31.8108C33.418 31.8108 33.0391 31.5364 32.8561 30.9876C32.6993 30.4388 32.6209 29.9423 32.6209 29.498C32.6209 29.0015 32.7385 28.2567 32.9737 27.2636C33.2351 26.2444 33.5748 25.0815 33.9929 23.7748C34.4111 22.4681 34.8815 21.1092 35.4041 19.698C35.9529 18.2607 36.5279 16.8625 37.1289 15.5036C37.7561 14.1447 38.3703 12.9295 38.9713 11.858C39.5724 10.7604 40.1473 9.88493 40.6961 9.2316C41.2449 8.57827 41.7284 8.2516 42.1465 8.2516C42.3556 8.2516 42.6823 8.35613 43.1265 8.5652C43.5708 8.77427 43.7929 9.02253 43.7929 9.31C43.7929 9.3884 43.5577 9.79347 43.0873 10.5252C42.6169 11.2308 42.0028 12.1585 41.2449 13.3084C40.5132 14.4583 39.7292 15.7388 38.8929 17.15C38.0567 18.5351 37.2596 19.9724 36.5017 21.462C35.77 22.9516 35.1689 24.3889 34.6985 25.774C34.2281 27.1329 33.9929 28.3481 33.9929 29.4196V29.7332C33.9929 29.9161 34.0191 30.0991 34.0713 30.282C34.1236 30.4388 34.2412 30.5172 34.4241 30.5172C34.7377 30.5172 34.8945 30.674 34.8945 30.9876C34.8945 31.1705 34.8161 31.3535 34.6593 31.5364C34.5025 31.7193 34.2804 31.8108 33.9929 31.8108Z" fill="#990D35"/>
<path d="M38.5679 34.3H37.8402V31.5601H34.9027V34.3H34.175V28.2452H34.9027V30.9043H37.8402V28.2452H38.5679V34.3Z" fill="#990D35"/>
<path d="M67.2207 18.3066C67.2142 18.1374 67.237 18.0007 67.2891 17.8965C67.3411 17.7923 67.4323 17.7109 67.5625 17.6523C67.6992 17.5938 67.8815 17.5547 68.1094 17.5352C68.3438 17.5091 68.64 17.4961 68.998 17.4961C69.3236 17.4961 69.597 17.5059 69.8184 17.5254C70.0397 17.5384 70.2188 17.5645 70.3555 17.6035C70.4987 17.6426 70.6061 17.6979 70.6777 17.7695C70.7559 17.8411 70.8112 17.929 70.8438 18.0332L73.5586 26.334H73.666L76.3418 18.0332C76.3678 17.929 76.4167 17.8411 76.4883 17.7695C76.5599 17.6979 76.6641 17.6426 76.8008 17.6035C76.9375 17.5645 77.11 17.5384 77.3184 17.5254C77.5267 17.5059 77.7839 17.4961 78.0898 17.4961C78.474 17.4961 78.7832 17.5091 79.0176 17.5352C79.252 17.5547 79.4342 17.5938 79.5645 17.6523C79.6947 17.7109 79.7793 17.7923 79.8184 17.8965C79.8639 18.0007 79.8835 18.1374 79.877 18.3066L79.4473 33.3359C79.4408 33.4857 79.4245 33.6061 79.3984 33.6973C79.3724 33.7819 79.3138 33.847 79.2227 33.8926C79.138 33.9382 79.0143 33.9674 78.8516 33.9805C78.6888 33.9935 78.4674 34 78.1875 34C77.9141 34 77.6927 33.9935 77.5234 33.9805C77.3607 33.9674 77.237 33.9382 77.1523 33.8926C77.0677 33.847 77.0091 33.7819 76.9766 33.6973C76.9505 33.6061 76.9375 33.4857 76.9375 33.3359L77.0059 22.8184H76.8789L74.6328 30.6211C74.5938 30.7448 74.5514 30.8457 74.5059 30.9238C74.4668 31.002 74.4082 31.0638 74.3301 31.1094C74.252 31.1484 74.1445 31.1745 74.0078 31.1875C73.8776 31.2005 73.7018 31.207 73.4805 31.207C73.2852 31.207 73.1289 31.2005 73.0117 31.1875C72.8945 31.168 72.8001 31.1387 72.7285 31.0996C72.6634 31.054 72.6113 30.9954 72.5723 30.9238C72.5332 30.8457 72.4941 30.7448 72.4551 30.6211L70.2383 22.8184H70.1113L70.1602 33.3359C70.1602 33.4857 70.1439 33.6061 70.1113 33.6973C70.0853 33.7819 70.0267 33.847 69.9355 33.8926C69.8509 33.9382 69.7272 33.9674 69.5645 33.9805C69.4017 33.9935 69.1803 34 68.9004 34C68.6204 34 68.3991 33.9935 68.2363 33.9805C68.0736 33.9674 67.9466 33.9382 67.8555 33.8926C67.7708 33.847 67.7155 33.7819 67.6895 33.6973C67.6634 33.6061 67.6471 33.4857 67.6406 33.3359L67.2207 18.3066ZM83.9199 20.7188C83.6009 20.7188 83.3438 20.7122 83.1484 20.6992C82.9596 20.6862 82.8132 20.6602 82.709 20.6211C82.6113 20.582 82.543 20.5267 82.5039 20.4551C82.4714 20.3835 82.4551 20.2858 82.4551 20.1621L82.3379 18.2578C82.3379 18.1211 82.3509 18.0072 82.377 17.916C82.4095 17.8184 82.4811 17.7435 82.5918 17.6914C82.7025 17.6393 82.862 17.6035 83.0703 17.584C83.2852 17.5579 83.5684 17.5449 83.9199 17.5449C84.2715 17.5449 84.5514 17.5579 84.7598 17.584C84.9746 17.6035 85.1374 17.6393 85.248 17.6914C85.3587 17.7435 85.4271 17.8184 85.4531 17.916C85.4857 18.0072 85.502 18.1211 85.502 18.2578L85.3945 20.1621C85.3945 20.2858 85.375 20.3835 85.3359 20.4551C85.3034 20.5267 85.235 20.582 85.1309 20.6211C85.0267 20.6602 84.877 20.6862 84.6816 20.6992C84.4928 20.7122 84.2389 20.7188 83.9199 20.7188ZM82.2793 22.9746C82.2793 22.8379 82.2923 22.724 82.3184 22.6328C82.3509 22.5352 82.4225 22.4603 82.5332 22.4082C82.6439 22.3561 82.8034 22.3203 83.0117 22.3008C83.2266 22.2747 83.5098 22.2617 83.8613 22.2617C84.2129 22.2617 84.4928 22.2747 84.7012 22.3008C84.916 22.3203 85.0788 22.3561 85.1895 22.4082C85.3001 22.4603 85.3685 22.5352 85.3945 22.6328C85.4271 22.724 85.4434 22.8379 85.4434 22.9746L85.1406 33.4434C85.1406 33.5671 85.1243 33.6647 85.0918 33.7363C85.0592 33.8079 84.9974 33.8633 84.9062 33.9023C84.8151 33.9414 84.6849 33.9674 84.5156 33.9805C84.3529 33.9935 84.1348 34 83.8613 34C83.5879 34 83.3665 33.9935 83.1973 33.9805C83.0345 33.9674 82.9076 33.9414 82.8164 33.9023C82.7318 33.8633 82.6732 33.8079 82.6406 33.7363C82.6081 33.6647 82.5918 33.5671 82.5918 33.4434L82.2793 22.9746ZM87.8262 22.9746C87.8262 22.8379 87.8392 22.724 87.8652 22.6328C87.8978 22.5352 87.9629 22.4603 88.0605 22.4082C88.1647 22.3561 88.3145 22.3203 88.5098 22.3008C88.7116 22.2747 88.9785 22.2617 89.3105 22.2617C89.6426 22.2617 89.9062 22.2747 90.1016 22.3008C90.3034 22.3203 90.4531 22.3561 90.5508 22.4082C90.6549 22.4603 90.7201 22.5352 90.7461 22.6328C90.7786 22.724 90.7949 22.8379 90.7949 22.9746L90.7754 23.5703C90.9577 23.362 91.1432 23.1732 91.332 23.0039C91.5273 22.8281 91.7324 22.6784 91.9473 22.5547C92.1686 22.4245 92.403 22.3236 92.6504 22.252C92.8978 22.1803 93.168 22.1445 93.4609 22.1445C94.0143 22.1445 94.5059 22.2812 94.9355 22.5547C95.3652 22.8281 95.6908 23.2188 95.9121 23.7266C96.1074 23.4987 96.3027 23.2904 96.498 23.1016C96.6999 22.9062 96.9147 22.737 97.1426 22.5938C97.3704 22.4505 97.6146 22.3398 97.875 22.2617C98.1354 22.1836 98.4219 22.1445 98.7344 22.1445C99.1315 22.1445 99.4993 22.2161 99.8379 22.3594C100.183 22.5026 100.476 22.7109 100.717 22.9844C100.964 23.2578 101.153 23.5898 101.283 23.9805C101.42 24.3711 101.482 24.8138 101.469 25.3086L101.234 33.4434C101.234 33.5671 101.218 33.6647 101.186 33.7363C101.153 33.8079 101.091 33.8633 101 33.9023C100.909 33.9414 100.779 33.9674 100.609 33.9805C100.447 33.9935 100.229 34 99.9551 34C99.6816 34 99.4603 33.9935 99.291 33.9805C99.1283 33.9674 99.0013 33.9414 98.9102 33.9023C98.8255 33.8633 98.7669 33.8079 98.7344 33.7363C98.7018 33.6647 98.6855 33.5671 98.6855 33.4434L98.4609 25.5918C98.4544 25.3379 98.4219 25.1263 98.3633 24.957C98.3047 24.7878 98.2266 24.6543 98.1289 24.5566C98.0312 24.459 97.9141 24.3906 97.7773 24.3516C97.6471 24.3125 97.5039 24.293 97.3477 24.293C97.1003 24.293 96.8789 24.3646 96.6836 24.5078C96.4948 24.6445 96.332 24.8105 96.1953 25.0059V25.3086L95.9609 33.4434C95.9609 33.5671 95.9447 33.6647 95.9121 33.7363C95.8796 33.8079 95.8177 33.8633 95.7266 33.9023C95.6354 33.9414 95.5052 33.9674 95.3359 33.9805C95.1732 33.9935 94.9551 34 94.6816 34C94.4082 34 94.1868 33.9935 94.0176 33.9805C93.8548 33.9674 93.7279 33.9414 93.6367 33.9023C93.5521 33.8633 93.4935 33.8079 93.4609 33.7363C93.4284 33.6647 93.4121 33.5671 93.4121 33.4434L93.1875 25.5918C93.181 25.3379 93.1484 25.1263 93.0898 24.957C93.0312 24.7878 92.9531 24.6543 92.8555 24.5566C92.7578 24.459 92.6406 24.3906 92.5039 24.3516C92.3737 24.3125 92.2305 24.293 92.0742 24.293C91.8268 24.293 91.6087 24.3613 91.4199 24.498C91.2311 24.6348 91.0684 24.7975 90.9316 24.9863L90.6875 33.4434C90.6875 33.5671 90.6712 33.6647 90.6387 33.7363C90.6061 33.8079 90.5443 33.8633 90.4531 33.9023C90.362 33.9414 90.2318 33.9674 90.0625 33.9805C89.8997 33.9935 89.6816 34 89.4082 34C89.1348 34 88.9134 33.9935 88.7441 33.9805C88.5814 33.9674 88.4544 33.9414 88.3633 33.9023C88.2786 33.8633 88.2201 33.8079 88.1875 33.7363C88.1549 33.6647 88.1387 33.5671 88.1387 33.4434L87.8262 22.9746ZM105.287 20.7188C104.968 20.7188 104.711 20.7122 104.516 20.6992C104.327 20.6862 104.18 20.6602 104.076 20.6211C103.979 20.582 103.91 20.5267 103.871 20.4551C103.839 20.3835 103.822 20.2858 103.822 20.1621L103.705 18.2578C103.705 18.1211 103.718 18.0072 103.744 17.916C103.777 17.8184 103.848 17.7435 103.959 17.6914C104.07 17.6393 104.229 17.6035 104.438 17.584C104.652 17.5579 104.936 17.5449 105.287 17.5449C105.639 17.5449 105.919 17.5579 106.127 17.584C106.342 17.6035 106.505 17.6393 106.615 17.6914C106.726 17.7435 106.794 17.8184 106.82 17.916C106.853 18.0072 106.869 18.1211 106.869 18.2578L106.762 20.1621C106.762 20.2858 106.742 20.3835 106.703 20.4551C106.671 20.5267 106.602 20.582 106.498 20.6211C106.394 20.6602 106.244 20.6862 106.049 20.6992C105.86 20.7122 105.606 20.7188 105.287 20.7188ZM103.646 22.9746C103.646 22.8379 103.66 22.724 103.686 22.6328C103.718 22.5352 103.79 22.4603 103.9 22.4082C104.011 22.3561 104.171 22.3203 104.379 22.3008C104.594 22.2747 104.877 22.2617 105.229 22.2617C105.58 22.2617 105.86 22.2747 106.068 22.3008C106.283 22.3203 106.446 22.3561 106.557 22.4082C106.667 22.4603 106.736 22.5352 106.762 22.6328C106.794 22.724 106.811 22.8379 106.811 22.9746L106.508 33.4434C106.508 33.5671 106.492 33.6647 106.459 33.7363C106.426 33.8079 106.365 33.8633 106.273 33.9023C106.182 33.9414 106.052 33.9674 105.883 33.9805C105.72 33.9935 105.502 34 105.229 34C104.955 34 104.734 33.9935 104.564 33.9805C104.402 33.9674 104.275 33.9414 104.184 33.9023C104.099 33.8633 104.04 33.8079 104.008 33.7363C103.975 33.6647 103.959 33.5671 103.959 33.4434L103.646 22.9746ZM109.711 23.3945C109.385 23.3945 109.151 23.3717 109.008 23.3262C108.865 23.2741 108.793 23.1667 108.793 23.0039C108.793 22.9128 108.829 22.7923 108.9 22.6426C108.979 22.4863 109.083 22.2585 109.213 21.959L110.121 19.8398H109.564C109.428 19.8398 109.317 19.8236 109.232 19.791C109.148 19.752 109.083 19.7031 109.037 19.6445C108.992 19.5859 108.959 19.5176 108.939 19.4395C108.926 19.3613 108.917 19.2832 108.91 19.2051L108.812 17.877C108.799 17.7402 108.809 17.6263 108.842 17.5352C108.881 17.4375 108.959 17.3626 109.076 17.3105C109.2 17.2585 109.372 17.2227 109.594 17.2031C109.822 17.1771 110.124 17.1641 110.502 17.1641C110.899 17.1641 111.218 17.1771 111.459 17.2031C111.7 17.2227 111.882 17.2585 112.006 17.3105C112.136 17.3626 112.217 17.4375 112.25 17.5352C112.289 17.6263 112.305 17.7402 112.299 17.877L112.23 19.2539C112.224 19.3971 112.217 19.5273 112.211 19.6445C112.204 19.7552 112.191 19.8626 112.172 19.9668C112.152 20.071 112.126 20.1751 112.094 20.2793C112.068 20.3835 112.025 20.4974 111.967 20.6211L110.961 22.7305C110.889 22.8737 110.821 22.9876 110.756 23.0723C110.697 23.1569 110.622 23.2253 110.531 23.2773C110.447 23.3229 110.339 23.3555 110.209 23.375C110.079 23.388 109.913 23.3945 109.711 23.3945ZM114.32 31.1582C114.32 31.0345 114.337 30.9336 114.369 30.8555C114.402 30.7773 114.464 30.7155 114.555 30.6699C114.652 30.6178 114.789 30.582 114.965 30.5625C115.141 30.543 115.372 30.5332 115.658 30.5332C115.951 30.5332 116.186 30.543 116.361 30.5625C116.537 30.582 116.671 30.6178 116.762 30.6699C116.859 30.7155 116.924 30.7806 116.957 30.8652C116.99 30.9434 117.006 31.0443 117.006 31.168V31.6465C117.006 32.0436 117.12 32.3203 117.348 32.4766C117.582 32.6328 117.911 32.7109 118.334 32.7109C118.757 32.7109 119.05 32.623 119.213 32.4473C119.382 32.265 119.467 31.9655 119.467 31.5488V31.0703C119.467 30.9076 119.444 30.7676 119.398 30.6504C119.359 30.5332 119.298 30.4323 119.213 30.3477C119.128 30.2565 119.018 30.1784 118.881 30.1133C118.751 30.0482 118.598 29.9863 118.422 29.9277L115.531 28.9121C115.069 28.7493 114.724 28.4824 114.496 28.1113C114.275 27.7402 114.154 27.2845 114.135 26.7441L114.076 25.0352C114.057 24.5143 114.164 24.0716 114.398 23.707C114.633 23.3424 114.949 23.0462 115.346 22.8184C115.743 22.584 116.199 22.4147 116.713 22.3105C117.227 22.1999 117.755 22.1445 118.295 22.1445C118.822 22.1445 119.337 22.1901 119.838 22.2812C120.339 22.3724 120.782 22.5254 121.166 22.7402C121.557 22.9486 121.863 23.2285 122.084 23.5801C122.312 23.9251 122.416 24.3581 122.396 24.8789L122.318 26.9297C122.312 27.0534 122.289 27.151 122.25 27.2227C122.217 27.2943 122.152 27.3496 122.055 27.3887C121.957 27.4277 121.817 27.4538 121.635 27.4668C121.459 27.4798 121.225 27.4863 120.932 27.4863C120.613 27.4863 120.355 27.4798 120.16 27.4668C119.971 27.4538 119.825 27.4277 119.721 27.3887C119.617 27.3496 119.545 27.2943 119.506 27.2227C119.473 27.151 119.457 27.0534 119.457 26.9297L119.389 24.7129C119.382 24.498 119.35 24.3223 119.291 24.1855C119.239 24.0488 119.164 23.9414 119.066 23.8633C118.975 23.7852 118.865 23.7331 118.734 23.707C118.604 23.681 118.458 23.668 118.295 23.668C118.132 23.668 117.982 23.6842 117.846 23.7168C117.715 23.7428 117.602 23.7949 117.504 23.873C117.406 23.9512 117.328 24.0586 117.27 24.1953C117.217 24.3255 117.188 24.4948 117.182 24.7031L117.113 26.8223C117.1 27.1413 117.165 27.4049 117.309 27.6133C117.458 27.8151 117.702 27.9714 118.041 28.082L120.502 28.9609C120.834 29.0781 121.107 29.2051 121.322 29.3418C121.537 29.4785 121.706 29.638 121.83 29.8203C121.96 30.0026 122.048 30.2109 122.094 30.4453C122.139 30.6732 122.156 30.9434 122.143 31.2559L122.123 31.7051C122.104 32.1543 121.986 32.5319 121.771 32.8379C121.563 33.1439 121.283 33.3945 120.932 33.5898C120.587 33.7786 120.189 33.9154 119.74 34C119.298 34.0781 118.832 34.1172 118.344 34.1172C117.868 34.1172 117.39 34.0781 116.908 34C116.433 33.9284 116.003 33.7982 115.619 33.6094C115.235 33.4141 114.923 33.1536 114.682 32.8281C114.441 32.4961 114.32 32.0729 114.32 31.5586V31.1582ZM129.486 18.3066C129.48 18.1374 129.496 18.0007 129.535 17.8965C129.574 17.7923 129.656 17.7109 129.779 17.6523C129.91 17.5938 130.092 17.5547 130.326 17.5352C130.561 17.5091 130.873 17.4961 131.264 17.4961C131.374 17.4961 131.479 17.4961 131.576 17.4961C131.68 17.4961 131.778 17.4993 131.869 17.5059H135.785C135.954 17.5059 136.085 17.5189 136.176 17.5449C136.273 17.571 136.342 17.6198 136.381 17.6914C136.426 17.763 136.452 17.8607 136.459 17.9844C136.472 18.1081 136.479 18.2676 136.479 18.4629C136.479 18.6582 136.472 18.821 136.459 18.9512C136.452 19.0749 136.426 19.1725 136.381 19.2441C136.342 19.3092 136.273 19.3548 136.176 19.3809C136.085 19.4069 135.954 19.4199 135.785 19.4199H133.012L132.836 25.416H135.189C135.359 25.416 135.489 25.429 135.58 25.4551C135.678 25.4811 135.746 25.5299 135.785 25.6016C135.831 25.6667 135.857 25.7611 135.863 25.8848C135.876 26.002 135.883 26.1549 135.883 26.3438C135.883 26.5326 135.876 26.6888 135.863 26.8125C135.857 26.9297 135.831 27.0241 135.785 27.0957C135.746 27.1608 135.678 27.2064 135.58 27.2324C135.489 27.2585 135.359 27.2715 135.189 27.2715H132.787L132.611 33.3848C132.611 33.515 132.595 33.6191 132.562 33.6973C132.536 33.7754 132.475 33.8372 132.377 33.8828C132.286 33.9284 132.152 33.9609 131.977 33.9805C131.801 33.9935 131.563 34 131.264 34C130.964 34 130.723 33.9935 130.541 33.9805C130.365 33.9674 130.232 33.9382 130.141 33.8926C130.049 33.847 129.988 33.7819 129.955 33.6973C129.929 33.6061 129.913 33.4857 129.906 33.3359L129.486 18.3066ZM138.139 31.1582C138.132 30.7936 138.21 30.4746 138.373 30.2012C138.536 29.9212 138.744 29.6771 138.998 29.4688C139.258 29.2604 139.551 29.0846 139.877 28.9414C140.202 28.7917 140.525 28.6647 140.844 28.5605C141.254 28.4238 141.687 28.3066 142.143 28.209C142.605 28.1113 143.054 28.0267 143.49 27.9551L143.402 24.7227C143.389 24.3646 143.298 24.1009 143.129 23.9316C142.966 23.7559 142.706 23.668 142.348 23.668C142.178 23.668 142.025 23.681 141.889 23.707C141.752 23.7331 141.632 23.7852 141.527 23.8633C141.43 23.9414 141.352 24.0488 141.293 24.1855C141.234 24.3223 141.202 24.498 141.195 24.7129L141.127 26.9297C141.127 27.0534 141.107 27.151 141.068 27.2227C141.036 27.2943 140.967 27.3496 140.863 27.3887C140.759 27.4277 140.609 27.4538 140.414 27.4668C140.225 27.4798 139.971 27.4863 139.652 27.4863C139.359 27.4863 139.122 27.4798 138.939 27.4668C138.757 27.4538 138.617 27.4277 138.52 27.3887C138.422 27.3496 138.357 27.2943 138.324 27.2227C138.292 27.151 138.272 27.0534 138.266 26.9297L138.188 24.8496C138.174 24.5046 138.233 24.1986 138.363 23.9316C138.493 23.6582 138.669 23.4238 138.891 23.2285C139.118 23.0267 139.376 22.8574 139.662 22.7207C139.955 22.584 140.258 22.4733 140.57 22.3887C140.889 22.2975 141.205 22.2357 141.518 22.2031C141.83 22.1641 142.117 22.1445 142.377 22.1445C142.937 22.1445 143.467 22.2096 143.969 22.3398C144.477 22.4635 144.919 22.6458 145.297 22.8867C145.674 23.1276 145.971 23.4238 146.186 23.7754C146.407 24.1204 146.511 24.5176 146.498 24.9668L146.195 33.4434C146.189 33.5671 146.169 33.6647 146.137 33.7363C146.111 33.8079 146.052 33.8633 145.961 33.9023C145.87 33.9414 145.74 33.9674 145.57 33.9805C145.408 33.9935 145.189 34 144.916 34C144.662 34 144.457 33.9935 144.301 33.9805C144.151 33.9674 144.034 33.9414 143.949 33.9023C143.871 33.8633 143.816 33.8079 143.783 33.7363C143.757 33.6647 143.744 33.5671 143.744 33.4434L143.734 33.1016C143.559 33.2318 143.367 33.3587 143.158 33.4824C142.95 33.5996 142.729 33.707 142.494 33.8047C142.26 33.8958 142.009 33.9707 141.742 34.0293C141.482 34.0879 141.208 34.1172 140.922 34.1172C140.466 34.1172 140.066 34.0553 139.721 33.9316C139.376 33.8014 139.086 33.6289 138.852 33.4141C138.624 33.1927 138.451 32.9355 138.334 32.6426C138.217 32.3431 138.155 32.0241 138.148 31.6855L138.139 31.1582ZM140.814 31.3926C140.814 31.5879 140.844 31.7572 140.902 31.9004C140.961 32.0371 141.039 32.151 141.137 32.2422C141.234 32.3268 141.348 32.3919 141.479 32.4375C141.615 32.4766 141.762 32.4961 141.918 32.4961C142.296 32.4961 142.621 32.4342 142.895 32.3105C143.168 32.1868 143.402 32.0436 143.598 31.8809L143.529 29.3711C143.178 29.4297 142.868 29.498 142.602 29.5762C142.335 29.6478 142.097 29.7292 141.889 29.8203C141.563 29.9701 141.303 30.1361 141.107 30.3184C140.912 30.4941 140.814 30.7253 140.814 31.0117V31.3926ZM148.91 31.1582C148.91 31.0345 148.926 30.9336 148.959 30.8555C148.992 30.7773 149.053 30.7155 149.145 30.6699C149.242 30.6178 149.379 30.582 149.555 30.5625C149.73 30.543 149.962 30.5332 150.248 30.5332C150.541 30.5332 150.775 30.543 150.951 30.5625C151.127 30.582 151.26 30.6178 151.352 30.6699C151.449 30.7155 151.514 30.7806 151.547 30.8652C151.579 30.9434 151.596 31.0443 151.596 31.168V31.6465C151.596 32.0436 151.71 32.3203 151.938 32.4766C152.172 32.6328 152.501 32.7109 152.924 32.7109C153.347 32.7109 153.64 32.623 153.803 32.4473C153.972 32.265 154.057 31.9655 154.057 31.5488V31.0703C154.057 30.9076 154.034 30.7676 153.988 30.6504C153.949 30.5332 153.887 30.4323 153.803 30.3477C153.718 30.2565 153.607 30.1784 153.471 30.1133C153.34 30.0482 153.188 29.9863 153.012 29.9277L150.121 28.9121C149.659 28.7493 149.314 28.4824 149.086 28.1113C148.865 27.7402 148.744 27.2845 148.725 26.7441L148.666 25.0352C148.646 24.5143 148.754 24.0716 148.988 23.707C149.223 23.3424 149.538 23.0462 149.936 22.8184C150.333 22.584 150.788 22.4147 151.303 22.3105C151.817 22.1999 152.344 22.1445 152.885 22.1445C153.412 22.1445 153.926 22.1901 154.428 22.2812C154.929 22.3724 155.372 22.5254 155.756 22.7402C156.146 22.9486 156.452 23.2285 156.674 23.5801C156.902 23.9251 157.006 24.3581 156.986 24.8789L156.908 26.9297C156.902 27.0534 156.879 27.151 156.84 27.2227C156.807 27.2943 156.742 27.3496 156.645 27.3887C156.547 27.4277 156.407 27.4538 156.225 27.4668C156.049 27.4798 155.814 27.4863 155.521 27.4863C155.202 27.4863 154.945 27.4798 154.75 27.4668C154.561 27.4538 154.415 27.4277 154.311 27.3887C154.206 27.3496 154.135 27.2943 154.096 27.2227C154.063 27.151 154.047 27.0534 154.047 26.9297L153.979 24.7129C153.972 24.498 153.939 24.3223 153.881 24.1855C153.829 24.0488 153.754 23.9414 153.656 23.8633C153.565 23.7852 153.454 23.7331 153.324 23.707C153.194 23.681 153.048 23.668 152.885 23.668C152.722 23.668 152.572 23.6842 152.436 23.7168C152.305 23.7428 152.191 23.7949 152.094 23.873C151.996 23.9512 151.918 24.0586 151.859 24.1953C151.807 24.3255 151.778 24.4948 151.771 24.7031L151.703 26.8223C151.69 27.1413 151.755 27.4049 151.898 27.6133C152.048 27.8151 152.292 27.9714 152.631 28.082L155.092 28.9609C155.424 29.0781 155.697 29.2051 155.912 29.3418C156.127 29.4785 156.296 29.638 156.42 29.8203C156.55 30.0026 156.638 30.2109 156.684 30.4453C156.729 30.6732 156.745 30.9434 156.732 31.2559L156.713 31.7051C156.693 32.1543 156.576 32.5319 156.361 32.8379C156.153 33.1439 155.873 33.3945 155.521 33.5898C155.176 33.7786 154.779 33.9154 154.33 34C153.887 34.0781 153.422 34.1172 152.934 34.1172C152.458 34.1172 151.98 34.0781 151.498 34C151.023 33.9284 150.593 33.7982 150.209 33.6094C149.825 33.4141 149.512 33.1536 149.271 32.8281C149.031 32.4961 148.91 32.0729 148.91 31.5586V31.1582ZM159.252 17.877C159.252 17.7402 159.265 17.6263 159.291 17.5352C159.324 17.4375 159.395 17.3626 159.506 17.3105C159.617 17.2585 159.776 17.2227 159.984 17.2031C160.199 17.1771 160.482 17.1641 160.834 17.1641C161.186 17.1641 161.465 17.1771 161.674 17.2031C161.889 17.2227 162.051 17.2585 162.162 17.3105C162.273 17.3626 162.341 17.4375 162.367 17.5352C162.4 17.6263 162.416 17.7402 162.416 17.877L162.309 23.4336C162.484 23.2448 162.663 23.0723 162.846 22.916C163.028 22.7598 163.223 22.6263 163.432 22.5156C163.64 22.3984 163.861 22.3073 164.096 22.2422C164.33 22.1771 164.587 22.1445 164.867 22.1445C165.264 22.1445 165.632 22.2161 165.971 22.3594C166.316 22.5026 166.609 22.7109 166.85 22.9844C167.097 23.2578 167.286 23.5898 167.416 23.9805C167.553 24.3711 167.615 24.8138 167.602 25.3086L167.367 33.4434C167.367 33.5671 167.351 33.6647 167.318 33.7363C167.286 33.8079 167.224 33.8633 167.133 33.9023C167.042 33.9414 166.911 33.9674 166.742 33.9805C166.579 33.9935 166.361 34 166.088 34C165.814 34 165.593 33.9935 165.424 33.9805C165.261 33.9674 165.134 33.9414 165.043 33.9023C164.958 33.8633 164.9 33.8079 164.867 33.7363C164.835 33.6647 164.818 33.5671 164.818 33.4434L164.594 25.5918C164.587 25.3379 164.555 25.1263 164.496 24.957C164.438 24.7878 164.359 24.6543 164.262 24.5566C164.164 24.459 164.047 24.3906 163.91 24.3516C163.78 24.3125 163.637 24.293 163.48 24.293C163.214 24.293 162.979 24.3743 162.777 24.5371C162.576 24.6934 162.406 24.8757 162.27 25.084L162.113 33.4434C162.113 33.5671 162.097 33.6647 162.064 33.7363C162.032 33.8079 161.97 33.8633 161.879 33.9023C161.788 33.9414 161.658 33.9674 161.488 33.9805C161.326 33.9935 161.107 34 160.834 34C160.561 34 160.339 33.9935 160.17 33.9805C160.007 33.9674 159.88 33.9414 159.789 33.9023C159.704 33.8633 159.646 33.8079 159.613 33.7363C159.581 33.6647 159.564 33.5671 159.564 33.4434L159.252 17.877ZM171.42 20.7188C171.101 20.7188 170.844 20.7122 170.648 20.6992C170.46 20.6862 170.313 20.6602 170.209 20.6211C170.111 20.582 170.043 20.5267 170.004 20.4551C169.971 20.3835 169.955 20.2858 169.955 20.1621L169.838 18.2578C169.838 18.1211 169.851 18.0072 169.877 17.916C169.91 17.8184 169.981 17.7435 170.092 17.6914C170.202 17.6393 170.362 17.6035 170.57 17.584C170.785 17.5579 171.068 17.5449 171.42 17.5449C171.771 17.5449 172.051 17.5579 172.26 17.584C172.475 17.6035 172.637 17.6393 172.748 17.6914C172.859 17.7435 172.927 17.8184 172.953 17.916C172.986 18.0072 173.002 18.1211 173.002 18.2578L172.895 20.1621C172.895 20.2858 172.875 20.3835 172.836 20.4551C172.803 20.5267 172.735 20.582 172.631 20.6211C172.527 20.6602 172.377 20.6862 172.182 20.6992C171.993 20.7122 171.739 20.7188 171.42 20.7188ZM169.779 22.9746C169.779 22.8379 169.792 22.724 169.818 22.6328C169.851 22.5352 169.923 22.4603 170.033 22.4082C170.144 22.3561 170.303 22.3203 170.512 22.3008C170.727 22.2747 171.01 22.2617 171.361 22.2617C171.713 22.2617 171.993 22.2747 172.201 22.3008C172.416 22.3203 172.579 22.3561 172.689 22.4082C172.8 22.4603 172.868 22.5352 172.895 22.6328C172.927 22.724 172.943 22.8379 172.943 22.9746L172.641 33.4434C172.641 33.5671 172.624 33.6647 172.592 33.7363C172.559 33.8079 172.497 33.8633 172.406 33.9023C172.315 33.9414 172.185 33.9674 172.016 33.9805C171.853 33.9935 171.635 34 171.361 34C171.088 34 170.867 33.9935 170.697 33.9805C170.535 33.9674 170.408 33.9414 170.316 33.9023C170.232 33.8633 170.173 33.8079 170.141 33.7363C170.108 33.6647 170.092 33.5671 170.092 33.4434L169.779 22.9746ZM175.229 25.1133C175.209 24.5924 175.313 24.1465 175.541 23.7754C175.775 23.3978 176.088 23.0885 176.479 22.8477C176.876 22.6068 177.331 22.431 177.846 22.3203C178.36 22.2031 178.887 22.1445 179.428 22.1445C179.968 22.1445 180.495 22.2031 181.01 22.3203C181.524 22.431 181.977 22.6068 182.367 22.8477C182.764 23.0885 183.077 23.3978 183.305 23.7754C183.539 24.1465 183.646 24.5924 183.627 25.1133L183.402 31.2949C183.383 31.8288 183.259 32.278 183.031 32.6426C182.803 33.0007 182.507 33.2904 182.143 33.5117C181.778 33.7266 181.361 33.8828 180.893 33.9805C180.424 34.0716 179.939 34.1172 179.438 34.1172C178.93 34.1172 178.441 34.0716 177.973 33.9805C177.504 33.8828 177.084 33.7266 176.713 33.5117C176.348 33.2904 176.052 33.0007 175.824 32.6426C175.596 32.2845 175.473 31.8385 175.453 31.3047L175.229 25.1133ZM178.129 31.3828C178.122 31.6302 178.142 31.8385 178.188 32.0078C178.24 32.1771 178.318 32.3138 178.422 32.418C178.533 32.5221 178.669 32.597 178.832 32.6426C179.001 32.6882 179.2 32.7109 179.428 32.7109C179.883 32.7109 180.215 32.6133 180.424 32.418C180.639 32.2227 180.74 31.8743 180.727 31.373L180.531 24.9473C180.525 24.6738 180.492 24.4525 180.434 24.2832C180.382 24.1139 180.307 23.9837 180.209 23.8926C180.111 23.8014 179.997 23.7428 179.867 23.7168C179.737 23.6842 179.59 23.668 179.428 23.668C179.265 23.668 179.118 23.6842 178.988 23.7168C178.858 23.7428 178.744 23.8014 178.646 23.8926C178.549 23.9837 178.471 24.1139 178.412 24.2832C178.36 24.4525 178.331 24.6738 178.324 24.9473L178.129 31.3828ZM185.893 22.9746C185.893 22.8379 185.906 22.724 185.932 22.6328C185.964 22.5352 186.029 22.4603 186.127 22.4082C186.231 22.3561 186.381 22.3203 186.576 22.3008C186.778 22.2747 187.045 22.2617 187.377 22.2617C187.709 22.2617 187.973 22.2747 188.168 22.3008C188.37 22.3203 188.52 22.3561 188.617 22.4082C188.721 22.4603 188.786 22.5352 188.812 22.6328C188.845 22.724 188.861 22.8379 188.861 22.9746L188.842 23.5703C189.024 23.362 189.21 23.1732 189.398 23.0039C189.594 22.8281 189.799 22.6784 190.014 22.5547C190.235 22.4245 190.469 22.3236 190.717 22.252C190.964 22.1803 191.234 22.1445 191.527 22.1445C191.924 22.1445 192.292 22.2161 192.631 22.3594C192.976 22.5026 193.269 22.7109 193.51 22.9844C193.757 23.2578 193.946 23.5898 194.076 23.9805C194.213 24.3711 194.275 24.8138 194.262 25.3086L194.027 33.4434C194.027 33.5671 194.011 33.6647 193.979 33.7363C193.946 33.8079 193.884 33.8633 193.793 33.9023C193.702 33.9414 193.572 33.9674 193.402 33.9805C193.24 33.9935 193.021 34 192.748 34C192.475 34 192.253 33.9935 192.084 33.9805C191.921 33.9674 191.794 33.9414 191.703 33.9023C191.618 33.8633 191.56 33.8079 191.527 33.7363C191.495 33.6647 191.479 33.5671 191.479 33.4434L191.254 25.5918C191.247 25.3379 191.215 25.1263 191.156 24.957C191.098 24.7878 191.02 24.6543 190.922 24.5566C190.824 24.459 190.707 24.3906 190.57 24.3516C190.44 24.3125 190.297 24.293 190.141 24.293C189.893 24.293 189.675 24.3613 189.486 24.498C189.298 24.6348 189.135 24.7975 188.998 24.9863L188.754 33.4434C188.754 33.5671 188.738 33.6647 188.705 33.7363C188.673 33.8079 188.611 33.8633 188.52 33.9023C188.428 33.9414 188.298 33.9674 188.129 33.9805C187.966 33.9935 187.748 34 187.475 34C187.201 34 186.98 33.9935 186.811 33.9805C186.648 33.9674 186.521 33.9414 186.43 33.9023C186.345 33.8633 186.286 33.8079 186.254 33.7363C186.221 33.6647 186.205 33.5671 186.205 33.4434L185.893 22.9746ZM201.361 18.3066C201.355 18.1374 201.371 18.0007 201.41 17.8965C201.449 17.7923 201.531 17.7109 201.654 17.6523C201.785 17.5938 201.967 17.5547 202.201 17.5352C202.436 17.5091 202.748 17.4961 203.139 17.4961C203.523 17.4961 203.832 17.5091 204.066 17.5352C204.301 17.5547 204.48 17.5938 204.604 17.6523C204.734 17.7109 204.818 17.7923 204.857 17.8965C204.903 18.0007 204.923 18.1374 204.916 18.3066L204.711 25.416H207.582L207.387 18.3066C207.38 18.1374 207.396 18.0007 207.436 17.8965C207.475 17.7923 207.556 17.7109 207.68 17.6523C207.81 17.5938 207.992 17.5547 208.227 17.5352C208.461 17.5091 208.773 17.4961 209.164 17.4961C209.548 17.4961 209.857 17.5091 210.092 17.5352C210.326 17.5547 210.505 17.5938 210.629 17.6523C210.759 17.7109 210.844 17.7923 210.883 17.8965C210.928 18.0007 210.948 18.1374 210.941 18.3066L210.512 33.3359C210.505 33.4857 210.486 33.6061 210.453 33.6973C210.427 33.7819 210.368 33.847 210.277 33.8926C210.186 33.9382 210.053 33.9674 209.877 33.9805C209.701 33.9935 209.464 34 209.164 34C208.865 34 208.624 33.9935 208.441 33.9805C208.266 33.9674 208.132 33.9382 208.041 33.8926C207.95 33.847 207.888 33.7819 207.855 33.6973C207.829 33.6061 207.813 33.4857 207.807 33.3359L207.641 27.2715H204.662L204.486 33.3359C204.486 33.4857 204.47 33.6061 204.438 33.6973C204.411 33.7819 204.35 33.847 204.252 33.8926C204.161 33.9382 204.027 33.9674 203.852 33.9805C203.676 33.9935 203.438 34 203.139 34C202.839 34 202.598 33.9935 202.416 33.9805C202.24 33.9674 202.107 33.9382 202.016 33.8926C201.924 33.847 201.863 33.7819 201.83 33.6973C201.804 33.6061 201.788 33.4857 201.781 33.3359L201.361 18.3066ZM213.158 22.9746C213.158 22.8379 213.171 22.724 213.197 22.6328C213.23 22.5352 213.301 22.4603 213.412 22.4082C213.523 22.3561 213.682 22.3203 213.891 22.3008C214.105 22.2747 214.389 22.2617 214.74 22.2617C215.092 22.2617 215.372 22.2747 215.58 22.3008C215.795 22.3203 215.958 22.3561 216.068 22.4082C216.179 22.4603 216.247 22.5352 216.273 22.6328C216.306 22.724 216.322 22.8379 216.322 22.9746L216.098 30.9434C216.091 31.2298 216.124 31.4642 216.195 31.6465C216.267 31.8288 216.361 31.9753 216.479 32.0859C216.602 32.1901 216.739 32.265 216.889 32.3105C217.038 32.3496 217.191 32.3691 217.348 32.3691C217.628 32.3691 217.878 32.3105 218.1 32.1934C218.321 32.0697 218.516 31.9329 218.686 31.7832L218.432 22.9746C218.432 22.8379 218.445 22.724 218.471 22.6328C218.503 22.5352 218.575 22.4603 218.686 22.4082C218.796 22.3561 218.956 22.3203 219.164 22.3008C219.379 22.2747 219.662 22.2617 220.014 22.2617C220.365 22.2617 220.645 22.2747 220.854 22.3008C221.068 22.3203 221.231 22.3561 221.342 22.4082C221.452 22.4603 221.521 22.5352 221.547 22.6328C221.579 22.724 221.596 22.8379 221.596 22.9746L221.293 33.4434C221.293 33.5671 221.277 33.6647 221.244 33.7363C221.212 33.8079 221.15 33.8633 221.059 33.9023C220.967 33.9414 220.837 33.9674 220.668 33.9805C220.505 33.9935 220.287 34 220.014 34C219.76 34 219.555 33.9935 219.398 33.9805C219.249 33.9674 219.132 33.9414 219.047 33.9023C218.969 33.8633 218.913 33.8079 218.881 33.7363C218.855 33.6647 218.842 33.5671 218.842 33.4434L218.822 32.9844C218.679 33.1146 218.516 33.248 218.334 33.3848C218.152 33.5215 217.943 33.6452 217.709 33.7559C217.481 33.86 217.227 33.9447 216.947 34.0098C216.674 34.0814 216.371 34.1172 216.039 34.1172C215.232 34.1172 214.597 33.8861 214.135 33.4238C213.673 32.9616 213.428 32.2812 213.402 31.3828L213.158 22.9746ZM224.057 17.877C224.057 17.7402 224.07 17.6263 224.096 17.5352C224.128 17.4375 224.2 17.3626 224.311 17.3105C224.421 17.2585 224.581 17.2227 224.789 17.2031C225.004 17.1771 225.287 17.1641 225.639 17.1641C225.99 17.1641 226.27 17.1771 226.479 17.2031C226.693 17.2227 226.856 17.2585 226.967 17.3105C227.077 17.3626 227.146 17.4375 227.172 17.5352C227.204 17.6263 227.221 17.7402 227.221 17.877L227.113 23.2578C227.224 23.1406 227.354 23.0169 227.504 22.8867C227.66 22.75 227.836 22.6296 228.031 22.5254C228.227 22.4147 228.441 22.3236 228.676 22.252C228.917 22.1803 229.177 22.1445 229.457 22.1445C229.913 22.1445 230.326 22.2259 230.697 22.3887C231.068 22.5449 231.384 22.7663 231.645 23.0527C231.911 23.3392 232.113 23.681 232.25 24.0781C232.387 24.4753 232.449 24.9082 232.436 25.377L232.26 30.875C232.24 31.4609 232.162 31.9622 232.025 32.3789C231.889 32.7891 231.7 33.1243 231.459 33.3848C231.225 33.6387 230.938 33.8242 230.6 33.9414C230.261 34.0586 229.883 34.1172 229.467 34.1172C229.161 34.1172 228.878 34.0846 228.617 34.0195C228.357 33.9609 228.116 33.8828 227.895 33.7852C227.673 33.681 227.471 33.5671 227.289 33.4434C227.113 33.3197 226.957 33.196 226.82 33.0723V33.4434C226.82 33.5671 226.804 33.6647 226.771 33.7363C226.745 33.8079 226.69 33.8633 226.605 33.9023C226.521 33.9414 226.4 33.9674 226.244 33.9805C226.094 33.9935 225.893 34 225.639 34C225.365 34 225.144 33.9935 224.975 33.9805C224.812 33.9674 224.685 33.9414 224.594 33.9023C224.509 33.8633 224.451 33.8079 224.418 33.7363C224.385 33.6647 224.369 33.5671 224.369 33.4434L224.057 17.877ZM226.957 31.8711C227.107 32.0013 227.289 32.1185 227.504 32.2227C227.725 32.3203 227.973 32.3691 228.246 32.3691C228.663 32.3691 228.988 32.2422 229.223 31.9883C229.464 31.7279 229.577 31.3568 229.564 30.875L229.418 25.377C229.411 25.1556 229.376 24.9668 229.311 24.8105C229.252 24.6543 229.171 24.5306 229.066 24.4395C228.969 24.3418 228.855 24.2734 228.725 24.2344C228.594 24.1888 228.458 24.166 228.314 24.166C228.087 24.166 227.862 24.2181 227.641 24.3223C227.426 24.4264 227.243 24.5436 227.094 24.6738L226.957 31.8711Z" fill="#FFF8E8"/>
</svg>
