<svg width="20" height="20" viewBox="0 0 49 49" fill="none" xmlns="http://www.w3.org/2000/svg">
<path d="M0 24.5C0 10.969 10.969 0 24.5 0C38.031 0 49 10.969 49 24.5C49 38.031 38.031 49 24.5 49C10.969 49 0 38.031 0 24.5Z" fill="#FCD581"/>
<path d="M6.08253 33.0652C5.586 33.0652 5.33773 32.5556 5.33773 31.5364C5.33773 31.0399 5.55987 30.2559 6.00413 29.1844C6.4484 28.0868 7.0364 26.8193 7.76813 25.382C8.526 23.9185 9.37533 22.4028 10.3161 20.8348C11.2569 19.2407 12.2239 17.6857 13.2169 16.17C14.21 14.6543 15.1639 13.2823 16.0785 12.054C16.9932 10.7996 17.8164 9.80653 18.5481 9.0748C19.2799 8.34307 19.8417 7.9772 20.2337 7.9772C20.4167 7.9772 20.6649 8.06867 20.9785 8.2516C21.2921 8.43453 21.5796 8.6436 21.8409 8.8788C22.1023 9.114 22.2329 9.32307 22.2329 9.506C22.2329 9.9764 22.1676 10.486 22.0369 11.0348C21.9324 11.5575 21.8409 12.054 21.7625 12.5244C21.7103 12.7857 21.6057 13.3737 21.4489 14.2884C21.2921 15.1769 21.1353 16.2092 20.9785 17.3852C20.8479 18.5351 20.7825 19.6327 20.7825 20.678C20.7825 21.6711 20.8871 22.5204 21.0961 23.226C21.3052 23.9316 21.6841 24.2844 22.2329 24.2844C22.9385 24.2844 23.8009 23.9577 24.8201 23.3044C25.8393 22.6511 26.9239 21.8148 28.0737 20.7956C29.2497 19.7503 30.4127 18.6527 31.5625 17.5028C32.7385 16.3268 33.81 15.2292 34.7769 14.21C35.77 13.1647 36.5932 12.3153 37.2465 11.662C37.926 11.0087 38.3311 10.682 38.4617 10.682C38.5401 10.682 38.5793 10.7343 38.5793 10.8388C38.5793 11.0479 38.4879 11.3092 38.3049 11.6228C37.9913 12.2239 37.4948 12.9817 36.8153 13.8964C36.162 14.7849 35.3911 15.7519 34.5025 16.7972C33.614 17.8425 32.6601 18.8748 31.6409 19.894C30.6479 20.9132 29.6417 21.8409 28.6225 22.6772C27.6033 23.5135 26.6233 24.1929 25.6825 24.7156C24.7417 25.2121 23.8924 25.4604 23.1345 25.4604C21.9324 25.4604 21.0177 25.1337 20.3905 24.4804C19.7633 23.8009 19.3321 22.9385 19.0969 21.8932C18.8617 20.8217 18.7441 19.7111 18.7441 18.5612C18.7441 17.2284 18.8095 16.0785 18.9401 15.1116C19.0708 14.1185 19.2276 12.9948 19.4105 11.7404C18.2345 12.9687 16.9671 14.4191 15.6081 16.0916C14.2753 17.738 12.9817 19.502 11.7273 21.3836C10.4991 23.2652 9.4276 25.1599 8.51293 27.0676C7.59827 28.9492 6.98413 30.7393 6.67053 32.438C6.6444 32.5948 6.59213 32.7385 6.51373 32.8692C6.43533 32.9999 6.2916 33.0652 6.08253 33.0652ZM33.9929 31.8108C33.418 31.8108 33.0391 31.5364 32.8561 30.9876C32.6993 30.4388 32.6209 29.9423 32.6209 29.498C32.6209 29.0015 32.7385 28.2567 32.9737 27.2636C33.2351 26.2444 33.5748 25.0815 33.9929 23.7748C34.4111 22.4681 34.8815 21.1092 35.4041 19.698C35.9529 18.2607 36.5279 16.8625 37.1289 15.5036C37.7561 14.1447 38.3703 12.9295 38.9713 11.858C39.5724 10.7604 40.1473 9.88493 40.6961 9.2316C41.2449 8.57827 41.7284 8.2516 42.1465 8.2516C42.3556 8.2516 42.6823 8.35613 43.1265 8.5652C43.5708 8.77427 43.7929 9.02253 43.7929 9.31C43.7929 9.3884 43.5577 9.79347 43.0873 10.5252C42.6169 11.2308 42.0028 12.1585 41.2449 13.3084C40.5132 14.4583 39.7292 15.7388 38.8929 17.15C38.0567 18.5351 37.2596 19.9724 36.5017 21.462C35.77 22.9516 35.1689 24.3889 34.6985 25.774C34.2281 27.1329 33.9929 28.3481 33.9929 29.4196V29.7332C33.9929 29.9161 34.0191 30.0991 34.0713 30.282C34.1236 30.4388 34.2412 30.5172 34.4241 30.5172C34.7377 30.5172 34.8945 30.674 34.8945 30.9876C34.8945 31.1705 34.8161 31.3535 34.6593 31.5364C34.5025 31.7193 34.2804 31.8108 33.9929 31.8108Z" fill="#990D35"/>
<path d="M38.5679 34.3H37.8402V31.5601H34.9027V34.3H34.175V28.2452H34.9027V30.9043H37.8402V28.2452H38.5679V34.3Z" fill="#990D35"/>
</svg>
