<svg width="68" height="68" viewBox="0 0 68 68" fill="none" xmlns="http://www.w3.org/2000/svg">
<g clip-path="url(#clip0_18_1498)">
<path d="M25.6133 56.562C26.1868 56.3816 26.6652 55.9808 26.9432 55.4478C27.2212 54.9147 27.2761 54.2931 27.0957 53.7196C26.9154 53.146 26.5146 52.6677 25.9815 52.3897C25.4485 52.1117 24.8268 52.0568 24.2533 52.2372L25.6133 56.562ZM9.07573 43.1433L6.8816 42.563L5.73013 46.9513L7.92427 47.527L9.07573 43.1388V43.1433ZM40.8 65.7329V67.9996H45.3333V65.7329H40.8ZM41.0856 43.914L40.8408 41.6609C40.4148 41.7065 40.0105 41.8719 39.6747 42.138C39.3389 42.404 39.0853 42.7598 38.9434 43.1641C38.8016 43.5683 38.7772 44.0045 38.8731 44.4221C38.969 44.8396 39.1813 45.2215 39.4853 45.5233L41.0811 43.9185L41.0856 43.914ZM56.6667 26.8052H58.9333V26.7916L56.6667 26.8052ZM52.8904 17.7068L50.7779 16.8908C50.6199 17.2995 50.5838 17.7452 50.6739 18.1741C50.764 18.6029 50.9765 18.9964 51.2856 19.307L52.8904 17.7068ZM52.6637 8.56302L54.7309 7.63822C54.5956 7.33689 54.3961 7.06878 54.1463 6.85265C53.8965 6.63652 53.6025 6.4776 53.2848 6.38702L52.6637 8.56302ZM42.8128 12.1534L42.2416 14.3476C42.546 14.4271 42.8636 14.4423 43.1743 14.3924C43.4849 14.3424 43.7817 14.2283 44.0459 14.0574L42.8128 12.1534ZM25.1872 12.1534L23.9541 14.0574C24.2183 14.2283 24.5151 14.3424 24.8257 14.3924C25.1364 14.4423 25.454 14.4271 25.7584 14.3476L25.1872 12.1534ZM15.3363 8.56755L14.7152 6.39155C14.3967 6.48155 14.1018 6.64021 13.8512 6.85636C13.6006 7.07252 13.4003 7.34094 13.2645 7.64275L15.3363 8.56755ZM15.1096 17.7113L16.7144 19.3116C17.0244 19.0006 17.2374 18.6063 17.3276 18.1765C17.4177 17.7468 17.3811 17.3001 17.2221 16.8908L15.1096 17.7113ZM11.3333 26.8822H13.6V26.8732L11.3333 26.8822ZM26.9189 43.9185L28.5147 45.5278C28.8166 45.2276 29.0279 44.8483 29.1243 44.4335C29.2207 44.0188 29.1983 43.5852 29.0597 43.1826C28.921 42.7799 28.6718 42.4245 28.3405 42.157C28.0092 41.8895 27.6092 41.7207 27.1864 41.67L26.9144 43.9185H26.9189ZM24.9333 49.8662H27.2L27.1955 49.6985L24.9333 49.8662ZM22.6667 65.7329V67.9996H27.2V65.7329H22.6667ZM24.2533 52.2372C21.5197 53.0985 19.7835 53.0033 18.632 52.6225C17.4941 52.2462 16.6192 51.4892 15.7805 50.4012C15.3421 49.8147 14.9336 49.2064 14.5565 48.5788C14.1712 47.9486 13.7315 47.2097 13.2872 46.5524C12.4213 45.2785 11.1429 43.6828 9.07573 43.1388L7.92427 47.527C8.28693 47.6177 8.7584 47.9577 9.5336 49.0956C9.90533 49.6486 10.2589 50.238 10.7032 50.9633C11.1293 51.6524 11.6189 52.414 12.1856 53.1574C13.3325 54.6534 14.8965 56.163 17.2176 56.9292C19.5296 57.6908 22.2768 57.6092 25.6133 56.562L24.2533 52.2372ZM45.3333 49.5852C45.3333 48.1436 45.2699 46.8289 44.8619 45.6049C44.4267 44.2993 43.6741 43.2929 42.6813 42.3092L39.4853 45.5278C40.188 46.2214 40.4283 46.6385 40.5597 47.0374C40.7184 47.5134 40.8 48.1889 40.8 49.5852H45.3333ZM41.3259 46.1716C45.4195 45.7318 49.8848 44.6982 53.3256 41.7198C56.8616 38.6598 58.9333 33.8817 58.9333 26.8052H54.4C54.4 32.966 52.632 36.3251 50.3563 38.2926C47.9808 40.3507 44.6533 41.2529 40.8408 41.6609L41.3259 46.1716ZM58.9333 26.7916C58.9198 22.7819 57.3231 18.94 54.4907 16.102L51.2856 19.307C53.2712 21.3017 54.3909 23.99 54.4 26.8052L58.9333 26.7916ZM55.0029 18.5228C55.6829 16.782 56.0003 14.9233 55.9549 13.051L51.4216 13.1644C51.4547 14.4338 51.2359 15.6973 50.7779 16.8817L55.0029 18.5228ZM55.9549 13.051C55.9091 11.1821 55.4931 9.34532 54.7309 7.63822L50.592 9.48329C51.1133 10.6438 51.3899 11.895 51.4216 13.1644L55.9549 13.051ZM52.6637 8.56302C53.2848 6.38249 53.2848 6.37795 53.2803 6.37795H53.2667L53.2485 6.36888C53.2036 6.3568 53.1582 6.34621 53.1125 6.33715C52.7958 6.2738 52.4743 6.2374 52.1515 6.22835C51.3738 6.21836 50.5978 6.30053 49.8395 6.47315C47.9128 6.88568 45.1973 7.91022 41.5888 10.2449L44.0459 14.0529C47.3053 11.9494 49.5131 11.1788 50.7915 10.9068C51.2461 10.8021 51.7123 10.7564 52.1787 10.7708L52.1424 10.7662C52.1272 10.7635 52.1121 10.7605 52.0971 10.7572L52.0699 10.7481H52.0563L52.0472 10.7436C52.0427 10.7436 52.0381 10.7436 52.6637 8.55849V8.56302ZM43.384 9.95475C37.2307 8.35132 30.7693 8.35132 24.616 9.95475L25.7584 14.3476C31.1625 12.9392 36.8375 12.9392 42.2416 14.3476L43.384 9.95475ZM26.4157 10.2449C22.8027 7.91475 20.0827 6.89022 18.156 6.48222C17.3975 6.31104 16.6215 6.23039 15.844 6.24195C15.4763 6.25197 15.1104 6.29752 14.7515 6.37795L14.7333 6.38702H14.7197L15.3363 8.56755L15.9573 10.7481L15.9437 10.7526L15.9301 10.7572C15.9061 10.7638 15.8819 10.7699 15.8576 10.7753C16.3118 10.7635 16.7657 10.8138 17.2085 10.9158C18.4869 11.1878 20.6947 11.954 23.9541 14.0574L26.4157 10.254V10.2449ZM13.2691 7.63369C12.5071 9.34083 12.091 11.1821 12.0451 13.051L16.5784 13.1644C16.6053 11.8941 16.8875 10.6423 17.408 9.48329L13.2691 7.63369ZM12.0451 13.051C11.9997 14.9233 12.3171 16.782 12.9971 18.5228L17.2221 16.8817C16.7625 15.6976 16.5422 14.4341 16.5739 13.1644L12.0405 13.051H12.0451ZM13.5048 16.102C12.0932 17.5181 10.9748 19.1988 10.2136 21.0478L14.4024 22.7705C14.9373 21.4785 15.7261 20.2998 16.7144 19.3025L13.5048 16.102ZM10.2136 21.0478C9.45104 22.8982 9.06127 24.8809 9.06667 26.8822L13.6 26.8732C13.6 25.4678 13.872 24.0761 14.4024 22.7796L10.2136 21.0569V21.0478ZM9.06667 26.8822C9.06667 33.9225 11.1429 38.6553 14.6835 41.6972C18.1152 44.6438 22.5715 45.6865 26.6515 46.1716L27.1864 41.67C23.3467 41.2076 20.0192 40.3009 17.6347 38.2518C15.3589 36.298 13.6 32.9841 13.6 26.8732H9.06667V26.8822ZM25.3187 42.3137C23.052 44.5713 22.4672 47.255 22.6712 50.0385L27.1955 49.6985C27.0595 47.8489 27.4357 46.6022 28.5192 45.5233L25.3232 42.3092L25.3187 42.3137ZM22.6667 49.8662V65.7329H27.2V49.8662H22.6667ZM45.3333 65.7329V58.9329H40.8V65.7329H45.3333ZM45.3333 58.9329V49.5852H40.8V58.9329H45.3333Z" fill="#D52941"/>
</g>
<defs>
<clipPath id="clip0_18_1498">
<rect width="68" height="68" fill="white"/>
</clipPath>
</defs>
</svg>
