<svg width="65" height="65" viewBox="0 0 65 65" fill="none" xmlns="http://www.w3.org/2000/svg">
<path d="M61.2137 27.0943C61.1008 26.4698 60.7721 25.9048 60.285 25.4979C59.7979 25.091 59.1834 24.8681 58.5487 24.8681H33.0417C32.3234 24.8681 31.6345 25.1534 31.1266 25.6613C30.6187 26.1692 30.3333 26.8581 30.3333 27.5764V38.0522C30.3333 38.7705 30.6187 39.4594 31.1266 39.9673C31.6345 40.4752 32.3234 40.7606 33.0417 40.7606H43.7721C43.0079 42.0505 41.9604 43.1498 40.709 43.9754C38.4197 45.4267 35.7514 46.1666 33.0417 46.1014C30.232 46.0694 27.504 45.1527 25.2451 43.4817C22.9862 41.8106 21.3115 39.4701 20.4587 36.7929V36.7875C19.5101 34.007 19.5101 30.9906 20.4587 28.2102V28.2047C21.3123 25.5282 22.9874 23.1886 25.2461 21.5181C27.5049 19.8476 30.2325 18.9312 33.0417 18.8989C34.6025 18.863 36.1551 19.1356 37.6103 19.7013C39.0654 20.2669 40.3946 21.1143 41.5215 22.195C42.0329 22.685 42.7159 22.9552 43.4242 22.9476C44.1325 22.94 44.8096 22.6552 45.3104 22.1543L53.0779 14.3868C53.3353 14.1297 53.5382 13.8234 53.6746 13.4861C53.8109 13.1488 53.878 12.7875 53.8717 12.4238C53.8653 12.0601 53.7858 11.7013 53.6378 11.369C53.4898 11.0367 53.2763 10.7376 53.0102 10.4895C47.6045 5.42107 40.4515 2.63382 33.0417 2.70849C27.5163 2.69203 22.0962 4.21967 17.3926 7.11913C12.6891 10.0186 8.88917 14.1745 6.42145 19.1183L6.41874 19.1237C4.32672 23.2718 3.24116 27.8544 3.24999 32.5002C3.25646 37.145 4.34118 41.725 6.41874 45.8793L6.42145 45.882C8.88917 50.8258 12.6891 54.9817 17.3926 57.8812C22.0962 60.7807 27.5163 62.3083 33.0417 62.2918C40.3148 62.4763 47.3832 59.8728 52.799 55.0145L52.8017 55.0118C55.7372 52.188 58.0498 48.7814 59.5908 45.0109C61.1318 41.2404 61.8673 37.1892 61.75 33.1177C61.7511 31.0979 61.5716 29.0821 61.2137 27.0943ZM33.0417 8.12516C38.1087 8.07621 43.056 9.66547 47.1467 12.6562L43.2114 16.5914C40.226 14.5254 36.672 13.4389 33.0417 13.4822C29.7271 13.4986 26.4768 14.3981 23.6254 16.088C20.774 17.7779 18.4245 20.1972 16.8187 23.0968L13.9262 20.8543L12.3419 19.6247C14.5214 16.0983 17.5686 13.1896 21.1926 11.1763C24.8165 9.16307 28.8961 8.11258 33.0417 8.12516ZM9.96666 40.3624C8.23565 35.2638 8.23565 29.7365 9.96666 24.6379L14.7929 28.3808C14.1758 31.0924 14.1758 33.908 14.7929 36.6195L9.96666 40.3624ZM33.0417 56.8752C28.8956 56.8882 24.8155 55.8379 21.191 53.8247C17.5666 51.8114 14.5189 48.9024 12.3392 45.3756L13.3656 44.5793L16.8215 41.8981C18.426 44.7985 20.7748 47.2188 23.6258 48.9097C26.4768 50.6006 29.727 51.501 33.0417 51.5181C36.1445 51.5553 39.2123 50.8593 41.9954 49.4868L46.5752 53.0429C42.546 55.6389 37.8337 56.9733 33.0417 56.8752ZM50.7162 49.4002L50.2206 49.0129L46.4912 46.1177C48.4478 44.0042 49.7628 41.3779 50.2829 38.5452C50.3553 38.1542 50.3407 37.7521 50.2401 37.3675C50.1396 36.9828 49.9556 36.625 49.7013 36.3194C49.4469 36.0139 49.1284 35.7681 48.7683 35.5995C48.4083 35.4309 48.0155 35.3436 47.6179 35.3439H35.75V30.2847H56.1952C56.2873 31.2191 56.3333 32.167 56.3333 33.1177C56.4913 39.045 54.4957 44.8314 50.7162 49.4002Z" fill="white"/>
</svg>
